<svg xmlns="http://www.w3.org/2000/svg" xmlns:xlink="http://www.w3.org/1999/xlink" id="Layer_1" width="44" height="44" x="0" y="0" enable-background="new 0 0 44 44" version="1.1" viewBox="0 0 44 44" xml:space="preserve"><circle cx="22" cy="35.287" r="3" fill="#4D4D4D"/><g><path fill="#4D4D4D" d="M34.537,16.316l3.387-3.774C33.917,8.337,28.267,5.712,22,5.712c-12.15,0-22,9.853-22,22 c0,0.146,0.008,0.289,0.011,0.435h0.546C1.151,17.911,9.615,9.787,20,9.787C25.784,9.787,30.969,12.315,34.537,16.316z"/></g><line x1="21.505" x2="40.494" y1="35.87" y2="14.704" fill="none" stroke="#4D4D4D" stroke-miterlimit="10" stroke-width="3"/><path fill="#4D4D4D" d="M38.174,22.272c0.595,1.538,1.015,3.163,1.201,4.861l4.568,1.729C43.964,28.479,44,28.101,44,27.712	c0-3.409-0.789-6.63-2.174-9.511L38.174,22.272z"/></svg>